<svg aria-hidden="true" style="position: absolute; width: 0; height: 0; overflow: hidden;" version="1.1" xmlns="http://www.w3.org/2000/svg" xmlns:xlink="http://www.w3.org/1999/xlink">
<defs>
<symbol id="icon-social-first" viewBox="0 0 40 32">
<path fill="" style="" d="M39.023 3.713c-1.4 0.604-2.923 1.038-4.492 1.208 1.629-0.968 2.849-2.497 3.431-4.3-1.529 0.909-3.203 1.547-4.95 1.885-0.73-0.78-1.613-1.402-2.593-1.826s-2.038-0.642-3.107-0.64c-4.323 0-7.799 3.504-7.799 7.804 0 0.604 0.073 1.208 0.192 1.789-6.473-0.338-12.246-3.431-16.084-8.165-0.699 1.194-1.066 2.554-1.061 3.939 0 2.708 1.377 5.096 3.477 6.5-1.237-0.049-2.446-0.389-3.527-0.993v0.096c0 3.792 2.681 6.935 6.253 7.658-0.671 0.174-1.361 0.263-2.054 0.265-0.508 0-0.988-0.050-1.473-0.119 0.988 3.092 3.865 5.338 7.292 5.412-2.681 2.1-6.038 3.335-9.684 3.335-0.654 0-1.258-0.023-1.885-0.096 3.458 2.218 7.561 3.499 11.98 3.499 14.345 0 22.195-11.884 22.195-22.2 0-0.338 0-0.677-0.023-1.016 1.519-1.112 2.85-2.488 3.911-4.035z"></path>
</symbol>
<symbol id="icon-social-sec" viewBox="0 0 32 32">
<path fill="" style="" d="M30.265 0.536h-28.566c-0.687 0-1.242 0.555-1.242 1.242v28.566c0 0.687 0.555 1.242 1.242 1.242h28.566c0.687 0 1.242-0.555 1.242-1.242v-28.566c0-0.687-0.555-1.242-1.242-1.242zM26.678 9.599h-2.48c-1.945 0-2.321 0.924-2.321 2.282v2.992h4.642l-0.605 4.685h-4.037v12.028h-4.84v-12.024h-4.048v-4.689h4.048v-3.454c0-4.009 2.449-6.195 6.028-6.195 1.715 0 3.187 0.128 3.617 0.186v4.188h-0.004z"></path>
</symbol>
<symbol id="icon-social-third" viewBox="0 0 32 32">
<path fill="" style="" d="M30.253 0.536h-28.566c-0.687 0-1.242 0.555-1.242 1.242v28.566c0 0.687 0.555 1.242 1.242 1.242h28.566c0.687 0 1.242-0.555 1.242-1.242v-28.566c0-0.687-0.555-1.242-1.242-1.242zM9.655 26.995h-4.607v-14.819h4.607v14.819zM7.353 10.15c-0.528 0-1.044-0.157-1.484-0.45s-0.781-0.71-0.984-1.198-0.255-1.025-0.152-1.543c0.103-0.518 0.357-0.994 0.731-1.367s0.849-0.628 1.367-0.731c0.518-0.103 1.055-0.050 1.543 0.152s0.905 0.544 1.198 0.984c0.293 0.439 0.45 0.955 0.45 1.484-0.004 1.475-1.199 2.67-2.67 2.67zM26.903 26.995h-4.603v-7.208c0-1.719-0.031-3.928-2.395-3.928-2.395 0-2.764 1.871-2.764 3.804v7.332h-4.599v-14.819h4.417v2.026h0.062c0.613-1.164 2.115-2.395 4.359-2.395 4.665 0 5.523 3.070 5.523 7.060v8.127z"></path>
</symbol>
<symbol id="icon-contact-sec" viewBox="0 0 20 32">
<path fill="" style="" d="M15.838 0.028h-11.313c-2.347 0-4.242 1.895-4.242 4.242v22.626c0 2.348 1.895 4.242 4.242 4.242h11.313c2.347 0 4.242-1.895 4.242-4.242v-22.626c0-2.347-1.895-4.242-4.242-4.242zM13.010 28.311h-5.657v-1.414h5.657v1.414zM17.606 24.068h-14.848v-19.798h14.848v19.798z"></path>
</symbol>
<symbol id="icon-contact-first" viewBox="0 0 26 32">
<path fill="" style="" d="M11.911 31.104c0.26 0.185 0.57 0.285 0.889 0.285s0.63-0.1 0.889-0.285c0.466-0.33 11.422-8.24 11.377-18.115 0-6.763-5.503-12.267-12.267-12.267s-12.267 5.503-12.267 12.259c-0.044 9.882 10.911 17.793 11.377 18.122zM12.8 3.79c5.074 0 9.2 4.126 9.2 9.208 0.032 6.805-6.728 12.915-9.2 14.919-2.47-2.006-9.232-8.117-9.2-14.927 0-5.074 4.126-9.2 9.2-9.2z"></path>
</symbol>
<symbol id="icon-burger" viewBox="0 0 40 32">
<path fill="" style="" d="M6.641 8h26.566v2.667h-26.566v-2.667zM13.283 14.667h19.925v2.667h-19.925v-2.667zM21.585 21.333h11.623v2.667h-11.623v-2.667z"></path>
</symbol>
<symbol id="icon-feature-first" viewBox="0 0 35 32">
<path fill="" style="" d="M9.528 18.145l5.031-5.031-11.004-10.987c-0.853-0.853-2.329-0.622-2.862 0.48-1.262 2.649-0.8 5.902 1.387 8.107l7.449 7.431zM21.582 14.927c2.72 1.262 6.542 0.373 9.369-2.453 3.396-3.396 4.053-8.267 1.44-10.88-2.595-2.596-7.467-1.956-10.88 1.44-2.827 2.827-3.715 6.649-2.453 9.369l-16.107 16.107c-0.332 0.332-0.519 0.783-0.519 1.253s0.187 0.921 0.519 1.253c0.332 0.332 0.783 0.519 1.253 0.519s0.921-0.187 1.253-0.519l11.004-10.969 10.987 10.987c0.165 0.165 0.36 0.295 0.575 0.384s0.446 0.135 0.678 0.135c0.233 0 0.463-0.046 0.678-0.135s0.41-0.22 0.575-0.384c0.165-0.165 0.295-0.36 0.384-0.575s0.135-0.446 0.135-0.678c0-0.233-0.046-0.463-0.135-0.678s-0.22-0.41-0.384-0.575l-10.987-10.987 2.613-2.613z"></path>
</symbol>
<symbol id="icon-feature-sec" viewBox="0 0 31 32">
<path fill="" style="" d="M12.853 14.288c1.578 2.624 1.346 5.712-0.541 6.96-1.887 1.216-4.702 0.080-6.295-2.544-1.578-2.624-1.33-5.744 0.557-6.96s4.702-0.080 6.279 2.544zM15.467 25.2c3.093 0 3.867-1.2 3.867-1.2s-0.773 3.2-3.867 3.2c-3.093 0-3.867-3.152-3.867-3.2 0 0 0.773 1.2 3.867 1.2zM24.36 11.744c1.887 1.216 2.134 4.336 0.557 6.96-1.593 2.624-4.408 3.76-6.295 2.544-1.887-1.248-2.119-4.336-0.541-6.96s4.393-3.76 6.279-2.544zM15.467 28.8c3.867 0 12.373-8.224 12.373-14.4s-5.553-11.2-12.373-11.2c-6.821 0-12.373 5.024-12.373 11.2s8.507 14.4 12.373 14.4zM15.467 0c8.507 0 15.467 6.464 15.467 14.4 0 6.528-8.785 17.6-15.467 17.6s-15.467-11.072-15.467-17.6c0-7.936 6.96-14.4 15.467-14.4z"></path>
</symbol>
<symbol id="icon-feature-third" viewBox="0 0 25 32">
<path fill="" style="" d="M19.185 10.264c-1.485 0-2.888 0.597-3.889 1.631l-7.251 6.653c-0.66 0.682-1.537 1.055-2.475 1.055-1.929 0-3.507-1.61-3.507-3.604s1.578-3.604 3.507-3.604c0.939 0 1.815 0.373 2.517 1.098l1.166 1.066 1.578-1.429-1.32-1.183c-0.517-0.536-1.131-0.961-1.807-1.25s-1.401-0.437-2.133-0.435c-3.074 0-5.57 2.58-5.57 5.736s2.496 5.736 5.57 5.736c1.485 0 2.888-0.597 3.889-1.631l7.251-6.653c0.66-0.682 1.537-1.056 2.475-1.056 1.929 0 3.507 1.61 3.507 3.604s-1.578 3.604-3.507 3.604c-0.928 0-1.815-0.373-2.517-1.098l-1.197-1.077-1.547 1.429 1.32 1.194c0.518 0.533 1.133 0.956 1.809 1.243s1.4 0.434 2.131 0.431c3.074 0 5.57-2.569 5.57-5.725 0-3.198-2.496-5.736-5.57-5.736z"></path>
</symbol>
</defs>
</svg>
